<svg width="66" height="59" viewBox="0 0 66 59" fill="none" xmlns="http://www.w3.org/2000/svg">
<rect width="65.0851" height="58.6384" rx="10" fill="#DCD7C6"/>
<mask id="path-2-outside-1_578_906" maskUnits="userSpaceOnUse" x="22.8828" y="20.8573" width="17" height="17" fill="black">
<rect fill="white" x="22.8828" y="20.8573" width="17" height="17"/>
<path d="M32.3528 28.3673H38.5028V29.4173C38.5028 29.5973 38.3828 29.7173 38.2028 29.7173H32.3528V35.9573H31.2428C31.0628 35.9573 30.9428 35.8373 30.9428 35.6573V29.7173H24.8228V28.6673C24.8228 28.4873 24.9428 28.3673 25.1228 28.3673H30.9428V22.2173H32.0528C32.2328 22.2173 32.3528 22.3373 32.3528 22.5173V28.3673Z"/>
</mask>
<path d="M32.3528 28.3673H38.5028V29.4173C38.5028 29.5973 38.3828 29.7173 38.2028 29.7173H32.3528V35.9573H31.2428C31.0628 35.9573 30.9428 35.8373 30.9428 35.6573V29.7173H24.8228V28.6673C24.8228 28.4873 24.9428 28.3673 25.1228 28.3673H30.9428V22.2173H32.0528C32.2328 22.2173 32.3528 22.3373 32.3528 22.5173V28.3673Z" fill="white"/>
<path d="M32.3528 28.3673H31.3528V29.3673H32.3528V28.3673ZM38.5028 28.3673H39.5028V27.3673H38.5028V28.3673ZM32.3528 29.7173V28.7173H31.3528V29.7173H32.3528ZM32.3528 35.9573V36.9573H33.3528V35.9573H32.3528ZM30.9428 29.7173H31.9428V28.7173H30.9428V29.7173ZM24.8228 29.7173H23.8228V30.7173H24.8228V29.7173ZM30.9428 28.3673V29.3673H31.9428V28.3673H30.9428ZM30.9428 22.2173V21.2173H29.9428V22.2173H30.9428ZM32.3528 29.3673H38.5028V27.3673H32.3528V29.3673ZM37.5028 28.3673V29.4173H39.5028V28.3673H37.5028ZM37.5028 29.4173C37.5028 29.2801 37.5529 29.088 37.7132 28.9277C37.8735 28.7674 38.0656 28.7173 38.2028 28.7173V30.7173C38.5201 30.7173 38.8621 30.6072 39.1274 30.3419C39.3927 30.0766 39.5028 29.7345 39.5028 29.4173H37.5028ZM38.2028 28.7173H32.3528V30.7173H38.2028V28.7173ZM31.3528 29.7173V35.9573H33.3528V29.7173H31.3528ZM32.3528 34.9573H31.2428V36.9573H32.3528V34.9573ZM31.2428 34.9573C31.3801 34.9573 31.5721 35.0074 31.7324 35.1677C31.8927 35.328 31.9428 35.5201 31.9428 35.6573H29.9428C29.9428 35.9745 30.0529 36.3166 30.3182 36.5819C30.5835 36.8472 30.9256 36.9573 31.2428 36.9573V34.9573ZM31.9428 35.6573V29.7173H29.9428V35.6573H31.9428ZM30.9428 28.7173H24.8228V30.7173H30.9428V28.7173ZM25.8228 29.7173V28.6673H23.8228V29.7173H25.8228ZM25.8228 28.6673C25.8228 28.8045 25.7727 28.9966 25.6124 29.1569C25.4521 29.3172 25.2601 29.3673 25.1228 29.3673V27.3673C24.8056 27.3673 24.4635 27.4774 24.1982 27.7427C23.9329 28.008 23.8228 28.3501 23.8228 28.6673H25.8228ZM25.1228 29.3673H30.9428V27.3673H25.1228V29.3673ZM31.9428 28.3673V22.2173H29.9428V28.3673H31.9428ZM30.9428 23.2173H32.0528V21.2173H30.9428V23.2173ZM32.0528 23.2173C31.9156 23.2173 31.7235 23.1672 31.5632 23.0069C31.4029 22.8466 31.3528 22.6545 31.3528 22.5173H33.3528C33.3528 22.2001 33.2427 21.858 32.9774 21.5927C32.7121 21.3274 32.3701 21.2173 32.0528 21.2173V23.2173ZM31.3528 22.5173V28.3673H33.3528V22.5173H31.3528Z" fill="white" mask="url(#path-2-outside-1_578_906)"/>
</svg>
