<svg width="25" height="26" viewBox="0 0 25 26" fill="none" xmlns="http://www.w3.org/2000/svg">
<path d="M0 10.4389C0 8.27764 0.463542 6.29468 1.39062 4.49002C2.31771 2.68537 3.5625 1.18869 5.125 0L6.59375 2.07481C5.34375 3.02577 4.34896 4.22527 3.60938 5.67332C2.86979 7.12136 2.5 8.70989 2.5 10.4389H0ZM22.5 10.4389C22.5 8.70989 22.1302 7.12136 21.3906 5.67332C20.651 4.22527 19.6562 3.02577 18.4062 2.07481L19.875 0C21.4375 1.18869 22.6823 2.68537 23.6094 4.49002C24.5365 6.29468 25 8.27764 25 10.4389H22.5ZM2.5 22.1097V19.5162H5V10.4389C5 8.64505 5.52083 7.05112 6.5625 5.65711C7.60417 4.26309 8.95833 3.34996 10.625 2.91771V2.00997C10.625 1.46966 10.8073 1.01039 11.1719 0.63217C11.5365 0.253948 11.9792 0.0648379 12.5 0.0648379C13.0208 0.0648379 13.4635 0.253948 13.8281 0.63217C14.1927 1.01039 14.375 1.46966 14.375 2.00997V2.91771C16.0417 3.34996 17.3958 4.26309 18.4375 5.65711C19.4792 7.05112 20 8.64505 20 10.4389V19.5162H22.5V22.1097H2.5ZM12.5 26C11.8125 26 11.224 25.7461 10.7344 25.2382C10.2448 24.7303 10 24.1197 10 23.4065H15C15 24.1197 14.7552 24.7303 14.2656 25.2382C13.776 25.7461 13.1875 26 12.5 26ZM7.5 19.5162H17.5V10.4389C17.5 9.01247 17.0104 7.79135 16.0312 6.77556C15.0521 5.75977 13.875 5.25187 12.5 5.25187C11.125 5.25187 9.94792 5.75977 8.96875 6.77556C7.98958 7.79135 7.5 9.01247 7.5 10.4389V19.5162Z" fill="#5F6368"/>
</svg>
