<svg width="40" height="14" viewBox="0 0 40 14" fill="none" xmlns="http://www.w3.org/2000/svg">
<rect width="40" height="14" rx="7" fill="#EC9F9F"/>
<path d="M8.67969 11.5039C8.44531 11.5039 8.32812 11.3516 8.32812 11.0469C8.32812 9.73438 8.51562 8.44531 8.89062 7.17969C9.17188 5.96094 9.64062 4.82422 10.2969 3.75781C10.4375 3.55859 10.6133 3.46484 10.8242 3.46484C10.918 3.46484 11.0117 3.48828 11.1172 3.54688C11.3047 3.66406 11.4102 3.83984 11.4102 4.0625C11.4102 4.12109 11.3984 4.16797 11.3867 4.22656C11.5625 4.19141 11.7383 4.17969 11.9141 4.17969C12.5703 4.17969 13.0508 4.37891 13.3672 4.80078C13.4961 4.97656 13.5664 5.1875 13.5664 5.41016C13.5664 5.51562 13.5547 5.62109 13.5312 5.72656C13.3203 6.40625 12.8867 6.89844 12.2422 7.19141L11.9492 7.30859C12.8984 7.63672 13.3672 8.15234 13.3672 8.86719V8.91406C13.2031 9.96875 12.6055 10.6719 11.5742 11.0234C11.1523 11.1641 10.7188 11.2812 10.2852 11.3633C10.0391 11.4219 9.79297 11.457 9.54688 11.457C9.33594 11.457 9.13672 11.4336 8.92578 11.3867C8.85547 11.4688 8.77344 11.5039 8.67969 11.5039ZM9.42969 10.625C10.0742 10.625 10.6953 10.5078 11.3047 10.2734C12.1719 9.98047 12.6055 9.47656 12.6055 8.76172C12.6055 8.70312 12.582 8.64453 12.5352 8.5625C12.3359 8.28125 11.9727 8.07031 11.4336 7.92969C11.082 7.82422 10.707 7.77734 10.332 7.77734L10.0156 7.78906C9.64062 9.11328 9.40625 9.95703 9.28906 10.3086C9.25391 10.4141 9.21875 10.5195 9.19531 10.625H9.42969ZM10.2617 6.94531L10.5195 6.89844C11.7852 6.69922 12.5352 6.28906 12.7578 5.65625C12.793 5.5625 12.8047 5.48047 12.8047 5.39844C12.8047 5.24609 12.7109 5.14062 12.5117 5.05859C12.3242 4.97656 12.0781 4.94141 11.7969 4.94141C11.5273 4.94141 11.2578 4.96484 10.9883 5.03516C10.6953 5.64453 10.4609 6.27734 10.2617 6.94531ZM14.6797 11.2461C13.9766 11.2461 13.5898 10.9766 13.5312 10.4258C13.5312 10.2852 13.5547 10.1094 13.6016 9.92188C13.9766 8.09375 14.3984 6.58203 14.8672 5.39844C14.7969 5.32812 14.7734 5.23438 14.7734 5.14062C14.7734 4.97656 14.832 4.85938 14.9609 4.80078C15.043 4.75391 15.1133 4.70703 15.207 4.67188C15.3125 4.44922 15.4414 4.23828 15.582 4.05078C15.7344 3.85156 15.8867 3.75781 16.0742 3.75781C16.1211 3.75781 16.168 3.76953 16.2148 3.78125C16.4609 3.83984 16.6133 3.98047 16.6836 4.21484C17.4102 4.02734 18.1719 3.93359 18.9805 3.93359H19.2383C19.5078 3.96875 19.6367 4.10938 19.6367 4.36719C19.6367 4.625 19.5078 4.75391 19.2383 4.75391H18.9805C18.1719 4.75391 17.293 4.88281 16.332 5.15234C16.0391 5.77344 15.7812 6.48828 15.5352 7.30859C15.5586 7.29688 15.7812 7.27344 16.2031 7.23828C17.2227 7.14453 17.9258 7.08594 18.3242 7.08594L18.6172 7.09766C18.875 7.13281 19.0039 7.27344 19.0039 7.51953C19.0039 7.75391 18.875 7.88281 18.6172 7.89453H18.2656C17.5273 7.89453 16.8945 7.92969 16.3555 8C16.0625 8.03516 15.7578 8.05859 15.4648 8.05859H15.3125C15.125 8.71484 14.9609 9.38281 14.8203 10.0742C15.0312 10.0742 16.0859 10.0039 17.9844 9.875C18.207 9.875 18.3125 9.98047 18.3125 10.2031C18.3125 10.3789 18.2305 10.4844 18.0664 10.543L17.7852 10.625C16.6484 11 15.6172 11.2109 14.6797 11.2461ZM20.9375 11.375C20.2344 11.375 19.6367 11.1992 19.1562 10.8359C18.9336 10.6719 18.8164 10.4727 18.8164 10.2148C18.8164 10.0039 18.875 9.89844 18.9922 9.89844C19.2266 9.92188 19.3789 9.96875 19.4727 10.0273C19.8477 10.25 20.2578 10.3555 20.668 10.3555C20.9961 10.3555 21.4062 10.2617 21.8867 10.0742C22.7422 9.78125 23.1758 9.38281 23.1758 8.87891C23.1758 8.69141 22.8711 8.45703 22.2734 8.16406C21.207 7.64844 20.668 6.96875 20.6328 6.13672C20.6328 5.64453 20.7969 5.23438 21.1133 4.89453C21.4297 4.55469 21.8047 4.29688 22.2383 4.12109C22.8359 3.86328 23.3867 3.73438 23.8906 3.73438C24.2305 3.73438 24.5586 3.79297 24.8633 3.92188C25.1094 4.01562 25.2266 4.16797 25.2266 4.37891C25.2266 4.67188 25.0508 4.84766 24.7109 4.89453L23.8555 4.98828C23.0586 5.11719 22.4961 5.35156 22.1445 5.67969C21.9922 5.82031 21.9102 5.94922 21.8867 6.07812C21.8867 6.21875 21.9453 6.37109 22.0508 6.54688C22.25 6.72266 22.5312 6.89844 22.8945 7.08594C23.4336 7.32031 23.8438 7.63672 24.1367 8C24.3125 8.28125 24.4062 8.5625 24.4062 8.86719C24.4062 9.03125 24.3828 9.19531 24.3242 9.37109C24.125 9.94531 23.7852 10.3906 23.293 10.6953C22.6133 11.1523 21.8281 11.375 20.9375 11.375ZM26.7617 11.2578C26.6445 11.2578 26.5742 11.0117 26.5742 10.543L26.5859 10.4141C26.5859 9.83984 26.7266 8.89062 27.0195 7.56641C27.1836 6.62891 27.4297 5.79688 27.7344 5.04688L25.8711 5.30469C25.7305 5.30469 25.6016 5.24609 25.5078 5.14062C25.4023 5.02344 25.3555 4.90625 25.3555 4.76562C25.3555 4.51953 25.4844 4.34375 25.7422 4.26172C26.6797 3.98047 27.6172 3.85156 28.5898 3.85156H29.3281C30.125 3.85156 30.8047 3.92188 31.3672 4.07422C31.5898 4.13281 31.6953 4.25 31.6953 4.41406C31.6953 4.64844 31.3672 4.78906 30.6992 4.82422H30.5C30.1484 4.85938 29.6445 4.89453 28.9648 4.91797C28.9414 4.92969 28.9062 4.92969 28.8477 4.92969C28.7891 5.16406 28.707 5.41016 28.625 5.65625C28.4492 6.125 28.2617 6.83984 28.0508 7.80078C27.7344 9.13672 27.4414 10.0859 27.1836 10.6602C27.0195 11.0586 26.8789 11.2578 26.7617 11.2578Z" fill="#FFF0F0"/>
</svg>
