<svg width="51" height="47" viewBox="0 0 51 47" fill="none" xmlns="http://www.w3.org/2000/svg">
<g filter="url(#filter0_d_578_961)">
<rect x="2" y="4.02991" width="42.906" height="38.6562" rx="10" fill="white"/>
</g>
<g clip-path="url(#clip0_578_961)">
<path d="M6.58789 29.5V27.2688C6.58789 26.2535 7.10734 25.4271 8.14622 24.7896C9.18511 24.1521 10.5546 23.8333 12.2546 23.8333C12.5615 23.8333 12.8566 23.8392 13.14 23.851C13.4233 23.8628 13.6948 23.8924 13.9546 23.9396C13.624 24.4354 13.3761 24.9549 13.2108 25.4979C13.0455 26.041 12.9629 26.6076 12.9629 27.1979V29.5H6.58789ZM15.0879 29.5V27.1979C15.0879 26.4424 15.2945 25.7517 15.7077 25.126C16.1209 24.5003 16.7053 23.9514 17.4608 23.4792C18.2164 23.0069 19.1195 22.6528 20.1702 22.4167C21.2209 22.1806 22.3601 22.0625 23.5879 22.0625C24.8393 22.0625 25.9903 22.1806 27.041 22.4167C28.0917 22.6528 28.9948 23.0069 29.7504 23.4792C30.5059 23.9514 31.0844 24.5003 31.4858 25.126C31.8872 25.7517 32.0879 26.4424 32.0879 27.1979V29.5H15.0879ZM34.2129 29.5V27.1979C34.2129 26.584 34.1362 26.0056 33.9827 25.4625C33.8292 24.9194 33.599 24.4118 33.2921 23.9396C33.5518 23.8924 33.8174 23.8628 34.0889 23.851C34.3605 23.8392 34.6379 23.8333 34.9212 23.8333C36.6212 23.8333 37.9907 24.1462 39.0296 24.7719C40.0684 25.3976 40.5879 26.2299 40.5879 27.2688V29.5H34.2129ZM18.0983 26.6667H29.1129C28.8768 26.1944 28.2216 25.7812 27.1473 25.4271C26.073 25.0729 24.8865 24.8958 23.5879 24.8958C22.2893 24.8958 21.1028 25.0729 20.0285 25.4271C18.9542 25.7812 18.3108 26.1944 18.0983 26.6667ZM12.2546 22.4167C11.4754 22.4167 10.8084 22.1392 10.2535 21.5844C9.69865 21.0295 9.42122 20.3625 9.42122 19.5833C9.42122 18.7806 9.69865 18.1076 10.2535 17.5646C10.8084 17.0215 11.4754 16.75 12.2546 16.75C13.0573 16.75 13.7303 17.0215 14.2733 17.5646C14.8164 18.1076 15.0879 18.7806 15.0879 19.5833C15.0879 20.3625 14.8164 21.0295 14.2733 21.5844C13.7303 22.1392 13.0573 22.4167 12.2546 22.4167ZM34.9212 22.4167C34.1421 22.4167 33.475 22.1392 32.9202 21.5844C32.3653 21.0295 32.0879 20.3625 32.0879 19.5833C32.0879 18.7806 32.3653 18.1076 32.9202 17.5646C33.475 17.0215 34.1421 16.75 34.9212 16.75C35.724 16.75 36.3969 17.0215 36.94 17.5646C37.483 18.1076 37.7546 18.7806 37.7546 19.5833C37.7546 20.3625 37.483 21.0295 36.94 21.5844C36.3969 22.1392 35.724 22.4167 34.9212 22.4167ZM23.5879 21C22.4073 21 21.4039 20.5868 20.5775 19.7604C19.7511 18.934 19.3379 17.9306 19.3379 16.75C19.3379 15.5458 19.7511 14.5365 20.5775 13.7219C21.4039 12.9073 22.4073 12.5 23.5879 12.5C24.7921 12.5 25.8014 12.9073 26.616 13.7219C27.4306 14.5365 27.8379 15.5458 27.8379 16.75C27.8379 17.9306 27.4306 18.934 26.616 19.7604C25.8014 20.5868 24.7921 21 23.5879 21ZM23.5879 18.1667C23.9893 18.1667 24.3257 18.0309 24.5973 17.7594C24.8688 17.4878 25.0046 17.1514 25.0046 16.75C25.0046 16.3486 24.8688 16.0122 24.5973 15.7406C24.3257 15.4691 23.9893 15.3333 23.5879 15.3333C23.1865 15.3333 22.85 15.4691 22.5785 15.7406C22.307 16.0122 22.1712 16.3486 22.1712 16.75C22.1712 17.1514 22.307 17.4878 22.5785 17.7594C22.85 18.0309 23.1865 18.1667 23.5879 18.1667Z" fill="#DCD7C6"/>
</g>
<defs>
<filter id="filter0_d_578_961" x="0" y="0.0299072" width="50.9062" height="46.6561" filterUnits="userSpaceOnUse" color-interpolation-filters="sRGB">
<feFlood flood-opacity="0" result="BackgroundImageFix"/>
<feColorMatrix in="SourceAlpha" type="matrix" values="0 0 0 0 0 0 0 0 0 0 0 0 0 0 0 0 0 0 127 0" result="hardAlpha"/>
<feOffset dx="2"/>
<feGaussianBlur stdDeviation="2"/>
<feComposite in2="hardAlpha" operator="out"/>
<feColorMatrix type="matrix" values="0 0 0 0 0.572314 0 0 0 0 0.572314 0 0 0 0 0.572314 0 0 0 0.25 0"/>
<feBlend mode="normal" in2="BackgroundImageFix" result="effect1_dropShadow_578_961"/>
<feBlend mode="normal" in="SourceGraphic" in2="effect1_dropShadow_578_961" result="shape"/>
</filter>
<clipPath id="clip0_578_961">
<rect width="34" height="34" fill="white" transform="translate(6.58789 4)"/>
</clipPath>
</defs>
</svg>
