<svg width="15" height="16" viewBox="0 0 15 16" fill="none" xmlns="http://www.w3.org/2000/svg">
<path d="M13.125 7.50004C13.1272 8.36082 12.9344 9.20997 12.5625 9.9783C12.1215 10.899 11.4436 11.6734 10.6047 12.2148C9.76572 12.7562 8.7989 13.0431 7.8125 13.0435C6.98758 13.0458 6.17382 12.8447 5.4375 12.4566L1.875 13.6957L3.0625 9.9783C2.69058 9.20997 2.49785 8.36082 2.5 7.50004C2.50038 6.47075 2.77538 5.4619 3.2942 4.58649C3.81302 3.71107 4.55516 3.00367 5.4375 2.54352C6.17382 2.15543 6.98758 1.95432 7.8125 1.95656H8.125C9.42772 2.03156 10.6582 2.60532 11.5807 3.56799C12.5033 4.53066 13.0531 5.8146 13.125 7.17395V7.50004Z" stroke="#B7B7B7" stroke-linecap="round" stroke-linejoin="round"/>
</svg>
