<svg width="16" height="14" viewBox="0 0 16 14" fill="none" xmlns="http://www.w3.org/2000/svg">
<path d="M8.1361 0C4.0861 0 0.772461 2.76636 0.772461 6.18182C0.809279 7.84318 1.55301 9.40409 2.79746 10.4318C2.79746 10.8955 2.48819 12.1086 0.772461 13.9091C2.51764 13.8241 4.18919 13.1364 5.53673 11.9773C6.37619 12.2323 7.25982 12.3636 8.1361 12.3636C12.1861 12.3636 15.4997 9.59727 15.4997 6.18182C15.4997 2.76636 12.1861 0 8.1361 0ZM8.1361 10.8182C4.88137 10.8182 2.24519 8.73954 2.24519 6.18182C2.24519 3.62409 4.88137 1.54545 8.1361 1.54545C11.3908 1.54545 14.027 3.62409 14.027 6.18182C14.027 8.73954 11.3908 10.8182 8.1361 10.8182Z" fill="#B7B7B7"/>
</svg>
