<svg width="16" height="14" viewBox="0 0 16 14" fill="none" xmlns="http://www.w3.org/2000/svg">
<path d="M7.93727 11.7867L7.86364 11.8625L7.78264 11.7867C4.28491 8.51979 1.97273 6.35952 1.97273 4.16894C1.97273 2.65296 3.07727 1.51598 4.55 1.51598C5.684 1.51598 6.78855 2.27397 7.17882 3.30483H8.54846C8.93873 2.27397 10.0433 1.51598 11.1773 1.51598C12.65 1.51598 13.7545 2.65296 13.7545 4.16894C13.7545 6.35952 11.4424 8.51979 7.93727 11.7867ZM11.1773 0C9.896 0 8.66627 0.613971 7.86364 1.57662C7.061 0.613971 5.83127 0 4.55 0C2.282 0 0.5 1.82675 0.5 4.16894C0.5 7.02655 3.00364 9.36874 6.79591 12.9085L7.86364 13.9091L8.93136 12.9085C12.7236 9.36874 15.2273 7.02655 15.2273 4.16894C15.2273 1.82675 13.4453 0 11.1773 0Z" fill="#B7B7B7"/>
</svg>
