<svg width="53" height="48" viewBox="0 0 53 48" fill="none" xmlns="http://www.w3.org/2000/svg">
<g filter="url(#filter0_d_580_818)">
<rect x="2" y="4" width="42.906" height="38.6562" rx="10" fill="white"/>
</g>
<path d="M19.4749 33.4806V22.0717H27.0728V33.4806M11.877 18.649L23.2739 10.6627L34.6708 18.649V31.1988C34.6708 31.804 34.404 32.3844 33.929 32.8123C33.454 33.2402 32.8098 33.4806 32.1381 33.4806H14.4096C13.7379 33.4806 13.0937 33.2402 12.6187 32.8123C12.1438 32.3844 11.877 31.804 11.877 31.1988V18.649Z" stroke="#957A65" stroke-width="2" stroke-linecap="round" stroke-linejoin="round"/>
<path d="M16.0511 21.0685C16.0511 22.7048 16.0511 24.341 16.0511 25.9772C16.0511 27.2653 16.0511 22.601 16.0511 21.7968C16.0511 18.1644 16.59 21.1165 16.59 23.0104C16.59 24.6287 16.59 29.4835 16.59 27.8652C16.59 26.6007 17.621 21.0159 16.4703 19.72C15.5607 18.6957 15.3688 23.4227 15.0932 23.9814C14.8333 24.5082 14.9735 26.284 14.9735 25.7075C14.9735 23.9683 14.1976 22.257 13.6263 20.61C12.3378 16.8953 12.8181 21.5536 12.8181 23.2262C12.8181 25.0789 13.8381 26.9657 13.8958 28.8362C13.9267 29.84 14.6959 31.4779 14.4047 32.3963C14.3326 32.6236 13.9808 32.2657 14.2849 31.9917C15.0602 31.2933 16.6665 31.0787 17.6677 30.7781" stroke="#957A65" stroke-width="3" stroke-linecap="round"/>
<path d="M18.4308 28.4377C17.9604 28.4377 17.4858 28.4966 17.0105 28.4966C16.6197 28.4966 15.455 28.6494 15.176 28.261C14.8139 27.7567 15.65 29.3867 15.8117 29.9694C16.0588 30.86 16.2716 31.7751 17.1885 32.3257" stroke="#957A65" stroke-width="3" stroke-linecap="round"/>
<path d="M14.3765 18.8942C14.2679 18.8833 14.2238 18.8152 14.293 18.7338C14.7005 18.2536 15.3228 17.9486 15.8949 17.6571C17.0742 17.0561 18.466 16.5774 19.473 15.7458C20.4311 14.9545 21.0528 14.0309 22.2919 13.5923C22.6477 13.4663 23.1217 13.1769 23.5015 13.1472C23.5999 13.1395 23.4544 13.596 23.4507 13.6054C23.1658 14.3184 22.4383 14.8965 21.9105 15.4643C21.1308 16.3031 20.2762 17.0798 19.3967 17.8338C18.1971 18.8623 16.7459 19.7544 15.7169 20.9233C15.6905 20.9533 15.4084 21.3186 15.5026 21.2571C15.9759 20.9483 16.3921 20.5189 16.8612 20.1902" stroke="#957A65" stroke-width="3" stroke-linecap="round"/>
<path d="M25.3607 14.4761C26.4693 14.7258 26.7604 16.1536 27.2496 16.9372C27.2541 16.9444 27.4309 17.1723 27.3186 17.0616C26.877 16.6257 26.4464 16.1789 25.9709 15.7721C25.6244 15.4755 24.3479 14.2068 23.904 14.8655C23.2376 15.8545 22.4837 17.0057 22.4837 18.2005C22.4837 18.78 22.0395 19.1122 21.4375 19.2478" stroke="#957A65" stroke-width="3" stroke-linecap="round"/>
<path d="M18.1023 19.9545C18.0724 20.1699 18.2996 20.0723 18.5999 20.0723C19.9884 20.0723 21.3788 20.0882 22.7665 20.0396C23.3374 20.0196 23.9058 19.9545 24.4774 19.9545C25.248 19.9545 26.0365 19.808 26.8131 19.7778C27.8551 19.7373 28.8948 19.7189 29.9372 19.7189" stroke="#957A65" stroke-width="3" stroke-linecap="round"/>
<path d="M25.2305 16.4789C25.2305 16.2664 25.9579 16.9888 26.0006 17.0254C26.8911 17.7903 27.7681 18.5684 28.6523 19.3393C29.0219 19.6614 29.3953 19.9988 29.6549 20.4029C29.8107 20.6453 29.6674 20.4998 29.5823 20.3734C29.3023 19.9577 29.0343 19.5378 28.7286 19.1363C28.4021 18.7076 28.0203 18.3789 27.6425 18.0007C27.3086 17.6664 27.0146 17.3831 26.6544 17.081C26.1956 16.6961 25.8173 16.822 25.2959 16.9501" stroke="#957A65" stroke-width="3" stroke-linecap="round"/>
<path d="M25.0332 16.9503C25.0488 17.2026 25.2295 17.4497 25.3819 17.6507C26.018 18.4891 26.8697 19.1696 27.7976 19.7354C28.5972 20.223 29.3833 20.6928 30.0679 21.3096" stroke="#957A65" stroke-width="3" stroke-linecap="round"/>
<path d="M28.8918 16.42C29.8186 17.1994 30.7342 17.9625 31.598 18.8026C32.2623 19.4486 32.9427 20.0212 33.338 20.8252C33.6444 21.4482 33.8064 21.9262 33.7957 22.6056C33.7878 23.112 33.5245 23.6167 33.3344 24.0848C33.2219 24.3618 33.1317 24.682 32.953 24.9325C32.815 25.1258 32.6957 24.809 32.6406 24.7198C31.9698 23.6338 31.2026 22.5709 30.3593 21.5877C30.3265 21.5494 29.9307 20.9695 29.8435 21.1983C29.6464 21.7156 29.5047 22.2541 29.3495 22.7823C28.8378 24.5238 28.2917 26.4906 28.7755 28.274C28.8483 28.5421 29.0687 28.8639 29.2187 29.1053C29.2399 29.1393 29.4103 29.417 29.4439 29.3736C29.9891 28.6719 30.2539 27.7684 30.4574 26.9485C30.6325 26.2431 30.7433 25.5329 30.8534 24.8179C30.86 24.7746 30.8744 24.4107 30.9551 24.6183C31.2137 25.2841 31.1149 26.0444 31.1149 26.7358C31.1149 27.5441 31.2635 28.4978 30.9805 29.2787C30.7493 29.9168 30.414 29.9058 29.6946 30.0544C29.1795 30.1607 28.9644 30.3561 28.9644 30.8595C28.9644 31.4585 29.3152 31.4148 29.8871 31.37C30.5958 31.3145 31.4805 31.0541 31.9213 30.5125C32.2597 30.0969 32.3352 29.4421 32.4226 28.9416C32.5434 28.2505 32.6188 26.1507 32.6188 26.8503C32.6188 28.3639 32.488 29.8693 32.488 31.3831" stroke="#957A65" stroke-width="3" stroke-linecap="round"/>
<g filter="url(#filter1_d_580_818)">
<rect x="2" y="4" width="45" height="40" rx="10" fill="white"/>
</g>
<path d="M20.1875 34.2V22.5334H28.0625V34.2M12.3125 19.0334L24.125 10.8667L35.9375 19.0334V31.8667C35.9375 32.4855 35.6609 33.079 35.1687 33.5166C34.6764 33.9542 34.0087 34.2 33.3125 34.2H14.9375C14.2413 34.2 13.5736 33.9542 13.0813 33.5166C12.5891 33.079 12.3125 32.4855 12.3125 31.8667V19.0334Z" stroke="#957A65" stroke-width="2" stroke-linecap="round" stroke-linejoin="round"/>
<path d="M16.7366 21.6619C16.7366 23.355 16.7366 25.0481 16.7366 26.7412C16.7366 28.0741 16.7366 23.2476 16.7366 22.4154C16.7366 18.6568 17.3018 21.7115 17.3018 23.6713C17.3018 25.3458 17.3018 30.3693 17.3018 28.6948C17.3018 27.3864 18.3831 21.6074 17.1762 20.2665C16.2223 19.2065 16.021 24.0979 15.7319 24.676C15.4594 25.2211 15.6064 27.0587 15.6064 26.4621C15.6064 24.6625 14.7926 22.8916 14.1935 21.1874C12.8421 17.3435 13.3458 22.1638 13.3458 23.8946C13.3458 25.8117 14.4156 27.7641 14.4761 29.6995C14.5085 30.7383 15.3153 32.4331 15.0098 33.3834C14.9342 33.6186 14.5653 33.2483 14.8842 32.9648C15.6973 32.2421 17.3821 32.0201 18.4321 31.7089" stroke="#957A65" stroke-width="3" stroke-linecap="round"/>
<path d="M19.2327 29.2873C18.7394 29.2873 18.2416 29.3482 17.743 29.3482C17.3333 29.3482 16.1117 29.5063 15.8191 29.1044C15.4392 28.5826 16.3162 30.2692 16.4858 30.8722C16.745 31.7937 16.9681 32.7406 17.9297 33.3105" stroke="#957A65" stroke-width="3" stroke-linecap="round"/>
<path d="M19.5081 26.2816C19.0148 26.2816 18.517 26.3426 18.0184 26.3426C17.6087 26.3426 16.3871 26.5007 16.0945 26.0988C15.7146 25.577 16.5916 27.2636 16.7612 27.8665C17.0204 28.7881 17.2435 29.735 18.2051 30.3048" stroke="#957A65" stroke-width="3" stroke-linecap="round"/>
<path d="M16.5081 28.2816C16.0148 28.2816 15.517 28.3426 15.0184 28.3426C14.6087 28.3426 13.3871 28.5007 13.0945 28.0988C12.7146 27.577 13.5916 29.2636 13.7612 29.8665C14.0204 30.7881 14.2435 31.735 15.2051 32.3048" stroke="#957A65" stroke-width="3" stroke-linecap="round"/>
<path d="M14.9799 19.4119C14.866 19.4007 14.8197 19.3303 14.8922 19.246C15.3197 18.7491 15.9723 18.4335 16.5724 18.1318C17.8092 17.51 19.269 17.0146 20.3251 16.1541C21.33 15.3353 21.982 14.3796 23.2815 13.9258C23.6548 13.7954 24.1519 13.496 24.5502 13.4652C24.6534 13.4572 24.5008 13.9296 24.4969 13.9393C24.1981 14.6771 23.4351 15.2753 22.8815 15.8629C22.0638 16.7308 21.1674 17.5345 20.2451 18.3147C18.9869 19.3789 17.4649 20.3021 16.3857 21.5116C16.358 21.5427 16.0621 21.9206 16.1609 21.857C16.6573 21.5375 17.0938 21.0932 17.5858 20.753" stroke="#957A65" stroke-width="3" stroke-linecap="round"/>
<path d="M18.1225 20.9468C18.0085 20.9356 17.9623 20.8652 18.0348 20.7809C18.4623 20.284 19.1149 19.9684 19.715 19.6667C20.9518 19.0449 22.4116 18.5495 23.4677 17.689C24.4726 16.8702 25.1245 15.9145 26.4241 15.4607C26.7973 15.3303 27.2944 15.0309 27.6928 15.0001C27.796 14.9921 27.6434 15.4645 27.6395 15.4742C27.3406 16.212 26.5777 16.8102 26.0241 17.3978C25.2064 18.2657 24.31 19.0694 23.3877 19.8496C22.1295 20.9138 20.6075 21.837 19.5283 23.0465C19.5005 23.0776 19.2047 23.4555 19.3035 23.3919C19.7999 23.0724 20.2364 22.6281 20.7284 22.2879" stroke="#957A65" stroke-width="3" stroke-linecap="round"/>
<path d="M26.5014 14.8402C27.6641 15.0986 27.9694 16.5761 28.4825 17.3869C28.4872 17.3944 28.6726 17.6302 28.5549 17.5156C28.0916 17.0646 27.64 16.6022 27.1414 16.1813C26.7779 15.8744 25.4392 14.5616 24.9736 15.2432C24.2746 16.2665 23.484 17.4578 23.484 18.6941C23.484 19.2937 23.0181 19.6375 22.3867 19.7778" stroke="#957A65" stroke-width="3" stroke-linecap="round"/>
<path d="M18.8875 20.5091C18.8562 20.732 19.0945 20.631 19.4095 20.631C20.8657 20.631 22.324 20.6474 23.7794 20.5971C24.3782 20.5764 24.9743 20.5091 25.5738 20.5091C26.3821 20.5091 27.209 20.3574 28.0236 20.3262C29.1163 20.2843 30.2068 20.2653 31.3 20.2653" stroke="#957A65" stroke-width="3" stroke-linecap="round"/>
<path d="M26.3633 16.9127C26.3633 16.6928 27.1262 17.4404 27.171 17.4783C28.105 18.2697 29.0248 19.0749 29.9522 19.8725C30.3398 20.2059 30.7313 20.555 31.0037 20.9732C31.1671 21.224 31.0167 21.0734 30.9275 20.9427C30.6338 20.5125 30.3528 20.078 30.0322 19.6626C29.6897 19.2189 29.2893 18.8788 28.893 18.4875C28.5428 18.1416 28.2345 17.8484 27.8567 17.5358C27.3755 17.1376 26.9788 17.2678 26.4319 17.4004" stroke="#957A65" stroke-width="3" stroke-linecap="round"/>
<path d="M26.1582 17.4005C26.1745 17.6616 26.364 17.9173 26.5239 18.1252C27.1911 18.9928 28.0843 19.697 29.0575 20.2824C29.8961 20.7869 30.7206 21.2731 31.4387 21.9114" stroke="#957A65" stroke-width="3" stroke-linecap="round"/>
<path d="M30.2035 16.8518C31.1755 17.6583 32.1358 18.4479 33.0418 19.3172C33.7385 19.9857 34.4521 20.5782 34.8667 21.4101C35.1881 22.0548 35.3579 22.5494 35.3468 23.2523C35.3385 23.7764 35.0623 24.2987 34.8629 24.7831C34.745 25.0696 34.6504 25.401 34.4629 25.6602C34.3182 25.8603 34.193 25.5323 34.1352 25.44C33.4317 24.3163 32.6271 23.2165 31.7427 22.1991C31.7082 22.1595 31.2931 21.5594 31.2017 21.7961C30.9949 22.3315 30.8463 22.8887 30.6835 23.4352C30.1469 25.2373 29.5741 27.2725 30.0816 29.1178C30.1579 29.3952 30.389 29.7283 30.5464 29.978C30.5686 30.0133 30.7473 30.3005 30.7826 30.2557C31.3544 29.5296 31.632 28.5947 31.8455 27.7463C32.0292 27.0164 32.1454 26.2815 32.2608 25.5416C32.2678 25.4968 32.2829 25.1203 32.3675 25.3351C32.6387 26.024 32.5351 26.8107 32.5351 27.5262C32.5351 28.3625 32.691 29.3494 32.3941 30.1575C32.1516 30.8177 31.8 30.8064 31.0455 30.9601C30.5052 31.0701 30.2797 31.2724 30.2797 31.7932C30.2797 32.413 30.6476 32.3678 31.2474 32.3215C31.9907 32.264 32.9186 31.9946 33.3809 31.4342C33.7358 31.0041 33.8149 30.3266 33.9067 29.8087C34.0333 29.0936 34.1124 26.9208 34.1124 27.6447C34.1124 29.2109 33.9752 30.7686 33.9752 32.335" stroke="#957A65" stroke-width="3" stroke-linecap="round"/>
<path d="M29.3187 17C30.2908 17.8064 31.2511 18.5961 32.1571 19.4654C32.8537 20.1339 33.5673 20.7264 33.982 21.5583C34.3033 22.2029 34.4731 22.6975 34.462 23.4005C34.4537 23.9246 34.1775 24.4469 33.9782 24.9313C33.8602 25.2178 33.7656 25.5492 33.5781 25.8084C33.4334 26.0084 33.3083 25.6805 33.2505 25.5882C32.5469 24.4645 31.7423 23.3647 30.8579 22.3473C30.8234 22.3077 30.4083 21.7076 30.3169 21.9443C30.1102 22.4797 29.9615 23.0369 29.7988 23.5834C29.2621 25.3855 28.6893 27.4207 29.1968 29.266C29.2731 29.5434 29.5043 29.8765 29.6616 30.1262C29.6838 30.1615 29.8625 30.4487 29.8978 30.4039C30.4696 29.6778 30.7473 28.7429 30.9608 27.8945C31.1444 27.1646 31.2606 26.4297 31.376 25.6898C31.383 25.645 31.3981 25.2685 31.4827 25.4833C31.754 26.1722 31.6503 26.9589 31.6503 27.6743C31.6503 28.5107 31.8062 29.4976 31.5094 30.3057C31.2668 30.9659 30.9153 30.9546 30.1607 31.1083C29.6204 31.2183 29.3949 31.4206 29.3949 31.9414C29.3949 32.5612 29.7628 32.516 30.3626 32.4697C31.1059 32.4122 32.0338 32.1428 32.4961 31.5824C32.851 31.1523 32.9302 30.4748 33.0219 29.9569C33.1485 29.2418 33.2276 27.069 33.2276 27.7929C33.2276 29.3591 33.0905 30.9168 33.0905 32.4832" stroke="#957A65" stroke-width="3" stroke-linecap="round"/>
<defs>
<filter id="filter0_d_580_818" x="0" y="0" width="50.9062" height="46.6561" filterUnits="userSpaceOnUse" color-interpolation-filters="sRGB">
<feFlood flood-opacity="0" result="BackgroundImageFix"/>
<feColorMatrix in="SourceAlpha" type="matrix" values="0 0 0 0 0 0 0 0 0 0 0 0 0 0 0 0 0 0 127 0" result="hardAlpha"/>
<feOffset dx="2"/>
<feGaussianBlur stdDeviation="2"/>
<feComposite in2="hardAlpha" operator="out"/>
<feColorMatrix type="matrix" values="0 0 0 0 0.572314 0 0 0 0 0.572314 0 0 0 0 0.572314 0 0 0 0.25 0"/>
<feBlend mode="normal" in2="BackgroundImageFix" result="effect1_dropShadow_580_818"/>
<feBlend mode="normal" in="SourceGraphic" in2="effect1_dropShadow_580_818" result="shape"/>
</filter>
<filter id="filter1_d_580_818" x="0" y="0" width="53" height="48" filterUnits="userSpaceOnUse" color-interpolation-filters="sRGB">
<feFlood flood-opacity="0" result="BackgroundImageFix"/>
<feColorMatrix in="SourceAlpha" type="matrix" values="0 0 0 0 0 0 0 0 0 0 0 0 0 0 0 0 0 0 127 0" result="hardAlpha"/>
<feOffset dx="2"/>
<feGaussianBlur stdDeviation="2"/>
<feComposite in2="hardAlpha" operator="out"/>
<feColorMatrix type="matrix" values="0 0 0 0 0.572314 0 0 0 0 0.572314 0 0 0 0 0.572314 0 0 0 0.25 0"/>
<feBlend mode="normal" in2="BackgroundImageFix" result="effect1_dropShadow_580_818"/>
<feBlend mode="normal" in="SourceGraphic" in2="effect1_dropShadow_580_818" result="shape"/>
</filter>
</defs>
</svg>
