<svg width="53" height="48" viewBox="0 0 53 48" fill="none" xmlns="http://www.w3.org/2000/svg">
<g filter="url(#filter0_d_580_821)">
<rect x="4" y="2" width="45" height="40" rx="10" fill="white"/>
</g>
<path d="M22.25 33.6667V22H29.75V33.6667M14.75 18.5L26 10.3334L37.25 18.5V31.3334C37.25 31.9522 36.9866 32.5457 36.5178 32.9833C36.0489 33.4209 35.413 33.6667 34.75 33.6667H17.25C16.587 33.6667 15.9511 33.4209 15.4822 32.9833C15.0134 32.5457 14.75 31.9522 14.75 31.3334V18.5Z" stroke="#E9DFD1" stroke-width="2" stroke-linecap="round" stroke-linejoin="round"/>
<path d="M18.8697 20.9741C18.8697 22.6473 18.8697 24.3205 18.8697 25.9937C18.8697 27.3109 18.8697 22.5412 18.8697 21.7187C18.8697 18.0044 19.4016 21.0231 19.4016 22.9598C19.4016 24.6147 19.4016 29.5791 19.4016 27.9243C19.4016 26.6312 20.4193 20.9203 19.2834 19.5951C18.3856 18.5476 18.1961 23.3815 17.9241 23.9527C17.6675 24.4914 17.8059 26.3074 17.8059 25.7179C17.8059 23.9394 17.04 22.1894 16.4761 20.5052C15.2042 16.7065 15.6783 21.4701 15.6783 23.1805C15.6783 25.075 16.6851 27.0045 16.7421 28.9172C16.7726 29.9437 17.5319 31.6186 17.2444 32.5577C17.1733 32.7901 16.826 32.4242 17.1262 32.144C17.8915 31.4298 19.4771 31.2104 20.4654 30.9029" stroke="#E9DFD1" stroke-width="3" stroke-linecap="round"/>
<path d="M21.2177 28.5096C20.7534 28.5096 20.285 28.5699 19.8157 28.5699C19.43 28.5699 18.2803 28.7261 18.0049 28.3289C17.6474 27.8133 18.4728 29.4801 18.6324 30.0759C18.8764 30.9866 19.0864 31.9224 19.9914 32.4855" stroke="#E9DFD1" stroke-width="3" stroke-linecap="round"/>
<path d="M21.3017 26.2783C20.8374 26.2783 20.3689 26.3386 19.8997 26.3386C19.514 26.3386 18.3643 26.4948 18.0889 26.0976C17.7314 25.582 18.5568 27.2487 18.7164 27.8446C18.9604 28.7553 19.1704 29.6911 20.0754 30.2542" stroke="#E9DFD1" stroke-width="3" stroke-linecap="round"/>
<path d="M17.2168 18.7507C17.1096 18.7395 17.0661 18.67 17.1343 18.5867C17.5367 18.0956 18.1509 17.7838 18.7157 17.4856C19.8797 16.8711 21.2536 16.3816 22.2476 15.5311C23.1934 14.722 23.807 13.7775 25.0301 13.329C25.3814 13.2002 25.8493 12.9043 26.2242 12.8739C26.3213 12.866 26.1777 13.3328 26.174 13.3424C25.8927 14.0716 25.1746 14.6627 24.6536 15.2433C23.884 16.101 23.0404 16.8953 22.1723 17.6663C20.9882 18.7181 19.5557 19.6303 18.54 20.8256C18.5138 20.8563 18.2354 21.2298 18.3284 21.167C18.7956 20.8512 19.2064 20.4121 19.6695 20.076" stroke="#E9DFD1" stroke-width="3" stroke-linecap="round"/>
<path d="M16.1153 23.8769C16.008 23.8658 15.9645 23.7962 16.0328 23.7129C16.4351 23.2219 17.0493 22.91 17.6141 22.6118C18.7781 21.9973 20.1521 21.5078 21.146 20.6574C22.0918 19.8482 22.7054 18.9037 23.9286 18.4552C24.2798 18.3264 24.7477 18.0305 25.1226 18.0001C25.2197 17.9922 25.0761 18.459 25.0724 18.4686C24.7912 19.1978 24.0731 19.7889 23.5521 20.3696C22.7825 21.2273 21.9388 22.0215 21.0707 22.7926C19.8866 23.8443 18.4541 24.7565 17.4384 25.9518C17.4123 25.9826 17.1338 26.3561 17.2268 26.2932C17.694 25.9774 18.1048 25.5383 18.5679 25.2022" stroke="#E9DFD1" stroke-width="3" stroke-linecap="round"/>
<path d="M28.0581 14.2328C29.1525 14.4881 29.4398 15.9482 29.9227 16.7495C29.9272 16.7569 30.1016 16.9899 29.9909 16.8767C29.5549 16.431 29.1298 15.9741 28.6605 15.5581C28.3185 15.2548 27.0584 13.9574 26.6203 14.631C25.9624 15.6423 25.2182 16.8196 25.2182 18.0413C25.2182 18.6339 24.7798 18.9736 24.1855 19.1123" stroke="#E9DFD1" stroke-width="3" stroke-linecap="round"/>
<path d="M20.8952 19.835C20.8657 20.0553 21.09 19.9554 21.3864 19.9554C22.757 19.9554 24.1295 19.9717 25.4993 19.922C26.0629 19.9015 26.6239 19.835 27.1882 19.835C27.9489 19.835 28.7271 19.6851 29.4938 19.6542C30.5223 19.6128 31.5486 19.594 32.5775 19.594" stroke="#E9DFD1" stroke-width="3" stroke-linecap="round"/>
<path d="M27.9316 16.2808C27.9316 16.0635 28.6497 16.8022 28.6918 16.8397C29.5709 17.6218 30.4366 18.4176 31.3094 19.2058C31.6742 19.5352 32.0427 19.8802 32.2991 20.2934C32.4529 20.5414 32.3113 20.3925 32.2274 20.2633C31.951 19.8382 31.6865 19.4088 31.3847 18.9983C31.0624 18.5598 30.6855 18.2238 30.3126 17.837C29.9829 17.4951 29.6927 17.2055 29.3372 16.8966C28.8843 16.503 28.5109 16.6317 27.9962 16.7627" stroke="#E9DFD1" stroke-width="3" stroke-linecap="round"/>
<path d="M27.7363 16.7628C27.7517 17.0208 27.9301 17.2735 28.0806 17.479C28.7085 18.3364 29.5491 19.0323 30.4651 19.6108C31.2544 20.1094 32.0304 20.5899 32.7062 21.2206" stroke="#E9DFD1" stroke-width="3" stroke-linecap="round"/>
<path d="M31.5461 16.2206C32.4609 17.0175 33.3647 17.7979 34.2174 18.657C34.8731 19.3176 35.5448 19.9031 35.935 20.7252C36.2374 21.3623 36.3973 21.8511 36.3868 22.5458C36.379 23.0637 36.1191 23.5799 35.9314 24.0585C35.8204 24.3417 35.7314 24.6692 35.5549 24.9253C35.4187 25.123 35.3009 24.799 35.2465 24.7078C34.5844 23.5973 33.8271 22.5104 32.9947 21.505C32.9623 21.4658 32.5716 20.8728 32.4855 21.1067C32.2909 21.6358 32.151 22.1864 31.9979 22.7265C31.4928 24.5074 30.9537 26.5187 31.4313 28.3423C31.5031 28.6164 31.7207 28.9455 31.8688 29.1923C31.8897 29.2272 32.0579 29.5111 32.0911 29.4668C32.6293 28.7492 32.8906 27.8253 33.0915 26.9869C33.2644 26.2656 33.3737 25.5393 33.4824 24.8082C33.4889 24.7639 33.5032 24.3918 33.5828 24.604C33.8381 25.2848 33.7405 26.0623 33.7405 26.7693C33.7405 27.5959 33.8872 28.5712 33.6079 29.3697C33.3796 30.0222 33.0487 30.011 32.3385 30.1629C31.83 30.2716 31.6178 30.4715 31.6178 30.9862C31.6178 31.5987 31.964 31.5541 32.5286 31.5083C33.2282 31.4515 34.1014 31.1852 34.5366 30.6314C34.8705 30.2064 34.9451 29.5369 35.0314 29.025C35.1506 28.3183 35.225 26.1711 35.225 26.8865C35.225 28.4343 35.0959 29.9736 35.0959 31.5216" stroke="#E9DFD1" stroke-width="3" stroke-linecap="round"/>
<defs>
<filter id="filter0_d_580_821" x="0" y="0" width="53" height="48" filterUnits="userSpaceOnUse" color-interpolation-filters="sRGB">
<feFlood flood-opacity="0" result="BackgroundImageFix"/>
<feColorMatrix in="SourceAlpha" type="matrix" values="0 0 0 0 0 0 0 0 0 0 0 0 0 0 0 0 0 0 127 0" result="hardAlpha"/>
<feOffset dy="2"/>
<feGaussianBlur stdDeviation="2"/>
<feComposite in2="hardAlpha" operator="out"/>
<feColorMatrix type="matrix" values="0 0 0 0 0 0 0 0 0 0 0 0 0 0 0 0 0 0 0.25 0"/>
<feBlend mode="normal" in2="BackgroundImageFix" result="effect1_dropShadow_580_821"/>
<feBlend mode="normal" in="SourceGraphic" in2="effect1_dropShadow_580_821" result="shape"/>
</filter>
</defs>
</svg>
