<svg width="32" height="35" viewBox="0 0 32 35" fill="none" xmlns="http://www.w3.org/2000/svg">
<path d="M23.9993 18.9585V16.0418H29.3327V18.9585H23.9993ZM25.5993 29.1668L21.3327 25.6668L22.9327 23.3335L27.1993 26.8335L25.5993 29.1668ZM22.9327 11.6668L21.3327 9.3335L25.5993 5.8335L27.1993 8.16683L22.9327 11.6668ZM6.66602 27.7085V21.8752H5.33268C4.59935 21.8752 3.97157 21.5896 3.44935 21.0184C2.92713 20.4472 2.66602 19.7606 2.66602 18.9585V16.0418C2.66602 15.2397 2.92713 14.5531 3.44935 13.9819C3.97157 13.4108 4.59935 13.1252 5.33268 13.1252H10.666L17.3327 8.75016V26.2502L10.666 21.8752H9.33268V27.7085H6.66602ZM14.666 21.0731V13.9272L11.3993 16.0418H5.33268V18.9585H11.3993L14.666 21.0731ZM18.666 22.3856V12.6147C19.266 13.1981 19.7493 13.909 20.116 14.7476C20.4827 15.5861 20.666 16.5036 20.666 17.5002C20.666 18.4967 20.4827 19.4142 20.116 20.2528C19.7493 21.0913 19.266 21.8022 18.666 22.3856Z" fill="#35465C"/>
</svg>
