<svg width="32" height="27" viewBox="0 0 32 27" fill="none" xmlns="http://www.w3.org/2000/svg">
<path d="M5.33366 22.5C4.60033 22.5 3.97255 22.2797 3.45033 21.8391C2.9281 21.3984 2.66699 20.8687 2.66699 20.25V6.75C2.66699 6.13125 2.9281 5.60156 3.45033 5.16094C3.97255 4.72031 4.60033 4.5 5.33366 4.5H26.667C27.4003 4.5 28.0281 4.72031 28.5503 5.16094C29.0725 5.60156 29.3337 6.13125 29.3337 6.75V20.25C29.3337 20.8687 29.0725 21.3984 28.5503 21.8391C28.0281 22.2797 27.4003 22.5 26.667 22.5H5.33366ZM16.0003 14.625L5.33366 9V20.25H26.667V9L16.0003 14.625ZM16.0003 12.375L26.667 6.75H5.33366L16.0003 12.375ZM5.33366 9V6.75V20.25V9Z" fill="#5F6368"/>
</svg>
