<svg width="55" height="48" viewBox="0 0 55 48" fill="none" xmlns="http://www.w3.org/2000/svg">
<g filter="url(#filter0_d_578_939)">
<rect x="2" y="4" width="46.8113" height="39.6562" rx="10" fill="white"/>
</g>
<path d="M24.9098 23.4915C23.7097 23.4915 22.6823 23.0897 21.8277 22.2861C20.973 21.4825 20.5457 20.5165 20.5457 19.388C20.5457 18.2596 20.973 17.2935 21.8277 16.4899C22.6823 15.6863 23.7097 15.2845 24.9098 15.2845C26.1099 15.2845 27.1373 15.6863 27.9919 16.4899C28.8466 17.2935 29.2739 18.2596 29.2739 19.388C29.2739 20.5165 28.8466 21.4825 27.9919 22.2861C27.1373 23.0897 26.1099 23.4915 24.9098 23.4915ZM16.1816 31.6985V28.826C16.1816 28.2447 16.3407 27.7104 16.659 27.2231C16.9772 26.7358 17.3999 26.3639 17.9273 26.1075C19.0547 25.5774 20.2002 25.1799 21.364 24.9149C22.5277 24.6499 23.7097 24.5174 24.9098 24.5174C26.1099 24.5174 27.2919 24.6499 28.4556 24.9149C29.6194 25.1799 30.7649 25.5774 31.8923 26.1075C32.4196 26.3639 32.8424 26.7358 33.1606 27.2231C33.4788 27.7104 33.6379 28.2447 33.6379 28.826V31.6985H16.1816ZM18.3637 29.6467H31.4559V28.826C31.4559 28.6379 31.4059 28.467 31.3059 28.3131C31.2059 28.1592 31.0741 28.0395 30.9104 27.954C29.9285 27.4924 28.9375 27.1462 27.9374 26.9153C26.9373 26.6845 25.9281 26.5691 24.9098 26.5691C23.8915 26.5691 22.8823 26.6845 21.8822 26.9153C20.8821 27.1462 19.8911 27.4924 18.9092 27.954C18.7455 28.0395 18.6137 28.1592 18.5137 28.3131C18.4137 28.467 18.3637 28.6379 18.3637 28.826V29.6467ZM24.9098 21.4398C25.5099 21.4398 26.0235 21.2389 26.4509 20.8371C26.8782 20.4353 27.0918 19.9523 27.0918 19.388C27.0918 18.8238 26.8782 18.3408 26.4509 17.939C26.0235 17.5372 25.5099 17.3363 24.9098 17.3363C24.3097 17.3363 23.796 17.5372 23.3687 17.939C22.9414 18.3408 22.7278 18.8238 22.7278 19.388C22.7278 19.9523 22.9414 20.4353 23.3687 20.8371C23.796 21.2389 24.3097 21.4398 24.9098 21.4398Z" fill="#DCD7C6"/>
<defs>
<filter id="filter0_d_578_939" x="0" y="0" width="54.8105" height="47.6561" filterUnits="userSpaceOnUse" color-interpolation-filters="sRGB">
<feFlood flood-opacity="0" result="BackgroundImageFix"/>
<feColorMatrix in="SourceAlpha" type="matrix" values="0 0 0 0 0 0 0 0 0 0 0 0 0 0 0 0 0 0 127 0" result="hardAlpha"/>
<feOffset dx="2"/>
<feGaussianBlur stdDeviation="2"/>
<feComposite in2="hardAlpha" operator="out"/>
<feColorMatrix type="matrix" values="0 0 0 0 0.572314 0 0 0 0 0.572314 0 0 0 0 0.572314 0 0 0 0.25 0"/>
<feBlend mode="normal" in2="BackgroundImageFix" result="effect1_dropShadow_578_939"/>
<feBlend mode="normal" in="SourceGraphic" in2="effect1_dropShadow_578_939" result="shape"/>
</filter>
</defs>
</svg>
