<svg width="51" height="47" viewBox="0 0 51 47" fill="none" xmlns="http://www.w3.org/2000/svg">
<g filter="url(#filter0_d_580_826)">
<rect x="2" y="4" width="42.906" height="38.6562" rx="10" fill="white"/>
</g>
<path d="M34.6206 33.4351V31.1534C34.6206 29.943 34.0869 28.7823 33.137 27.9264C32.187 27.0706 30.8987 26.5898 29.5553 26.5898H19.4247C18.0813 26.5898 16.7929 27.0706 15.843 27.9264C14.893 28.7823 14.3594 29.943 14.3594 31.1534V33.4351M29.5553 17.4626C29.5553 19.983 27.2875 22.0262 24.49 22.0262C21.6925 22.0262 19.4247 19.983 19.4247 17.4626C19.4247 14.9422 21.6925 12.899 24.49 12.899C27.2875 12.899 29.5553 14.9422 29.5553 17.4626Z" stroke="#DCD7C6" stroke-width="2" stroke-linecap="round" stroke-linejoin="round"/>
<path d="M24.0489 15.4744C24.3684 16.0862 24.2661 17.0686 24.199 17.7338C24.1465 18.254 23.0318 18.6639 22.6183 18.8794C22.3229 19.0334 21.196 19.7815 20.9582 19.2613C20.786 18.8845 21.0037 18.4362 21.3821 18.227C21.8055 17.9929 23.0087 17.8754 23.4131 18.2589C23.7605 18.5883 24.0173 19.0965 24.2785 19.484C24.4307 19.7099 24.5221 20.3218 24.2961 19.8182C23.9274 18.9964 23.5128 18.0516 23.4396 17.161C23.3934 16.5991 23.8171 15.8804 24.0135 15.363C24.3655 14.436 24.6887 14.753 25.603 15.0766C26.5867 15.4248 27.0079 16.9712 26.9982 17.7974C26.9932 18.2235 26.8635 20.2001 26.1152 20.2001" stroke="#DCD7C6" stroke-width="3" stroke-linecap="round"/>
<path d="M25.1504 14.7236C25.47 15.3355 25.3677 16.3179 25.3005 16.9831C25.248 17.5033 24.1334 17.9132 23.7199 18.1287C23.4244 18.2827 22.2975 19.0307 22.0598 18.5106C21.8876 18.1337 22.1053 17.6855 22.4837 17.4763C22.9071 17.2422 24.1102 17.1246 24.5146 17.5081C24.862 17.8376 25.1188 18.3457 25.38 18.7333C25.5322 18.9592 25.6237 19.5711 25.3977 19.0675C25.0289 18.2456 24.6144 17.3009 24.5411 16.4103C24.4949 15.8484 24.9186 15.1297 25.1151 14.6123C25.4671 13.6852 25.7903 14.0022 26.7046 14.3259C27.6883 14.674 28.1094 16.2205 28.0998 17.0467C28.0948 17.4728 27.9651 19.4493 27.2167 19.4493" stroke="#DCD7C6" stroke-width="3" stroke-linecap="round"/>
<path d="M23.1504 14.7236C23.47 15.3355 23.3677 16.3179 23.3005 16.9831C23.248 17.5033 22.1334 17.9132 21.7199 18.1287C21.4244 18.2827 20.2975 19.0307 20.0598 18.5106C19.8876 18.1337 20.1053 17.6855 20.4837 17.4763C20.9071 17.2422 22.1102 17.1246 22.5146 17.5081C22.862 17.8376 23.1188 18.3457 23.38 18.7333C23.5322 18.9592 23.6237 19.5711 23.3977 19.0675C23.0289 18.2456 22.6144 17.3009 22.5411 16.4103C22.4949 15.8484 22.9186 15.1297 23.1151 14.6123C23.4671 13.6852 23.7903 14.0022 24.7046 14.3259C25.6883 14.674 26.1094 16.2205 26.0998 17.0467C26.0948 17.4728 25.9651 19.4493 25.2167 19.4493" stroke="#DCD7C6" stroke-width="3" stroke-linecap="round"/>
<path d="M24.1504 15.7236C24.47 16.3355 24.3677 17.3179 24.3005 17.9831C24.248 18.5033 23.1334 18.9132 22.7199 19.1287C22.4244 19.2827 21.2975 20.0307 21.0598 19.5106C20.8876 19.1337 21.1053 18.6855 21.4837 18.4763C21.9071 18.2422 23.1102 18.1246 23.5146 18.5081C23.862 18.8376 24.1188 19.3457 24.38 19.7333C24.5322 19.9592 24.6237 20.5711 24.3977 20.0675C24.0289 19.2456 23.6144 18.3009 23.5411 17.4103C23.4949 16.8484 23.9186 16.1297 24.1151 15.6123C24.4671 14.6852 24.7903 15.0022 25.7046 15.3259C26.6883 15.674 27.1094 17.2205 27.0998 18.0467C27.0948 18.4728 26.9651 20.4493 26.2167 20.4493" stroke="#DCD7C6" stroke-width="3" stroke-linecap="round"/>
<path d="M23.5716 18.195C23.0215 18.1331 22.7769 16.9419 22.7769 16.5561C22.7769 16.3271 22.459 15.4437 22.459 16.1902" stroke="#DCD7C6" stroke-width="3" stroke-linecap="round"/>
<path d="M23.5716 18.195C23.0215 18.1331 22.7769 16.9419 22.7769 16.5561C22.7769 16.3271 22.459 15.4437 22.459 16.1902" stroke="#DCD7C6" stroke-width="3" stroke-linecap="round"/>
<path d="M15.7832 31.9426C17.2003 31.1218 18.5301 31.5163 20.1277 31.2982C21.8847 31.0584 23.7698 31.2266 25.5407 31.2266C26.0874 31.2266 26.7547 31.1275 27.2892 31.2346C28.5084 31.4787 24.7941 31.3698 23.5451 31.3698C21.8118 31.3698 19.8924 31.5839 18.1674 31.3618C17.8701 31.3236 17.7092 31.068 17.461 30.9402C17.1746 30.7928 17.1303 30.4676 16.8958 30.3356C15.8246 29.7324 18.0961 29.1309 18.397 29.0786C19.6274 28.8644 20.9382 29.1444 22.1411 28.9035C22.8487 28.7618 23.6094 28.5539 24.331 28.5057C25.9461 28.398 27.6211 28.3625 29.2848 28.3625C30.3172 28.3625 32.6315 27.9014 32.6315 29.3013C32.6315 30.7939 30.6218 31.5565 29.0994 31.0197C28.7025 30.8798 27.6506 30.2109 28.0221 30.3992C28.5712 30.6775 28.9382 30.9165 29.5762 31.0834C30.4859 31.3213 31.4456 31.3955 32.3136 31.6562" stroke="#DCD7C6" stroke-width="3" stroke-linecap="round"/>
<defs>
<filter id="filter0_d_580_826" x="0" y="0" width="50.9062" height="46.6561" filterUnits="userSpaceOnUse" color-interpolation-filters="sRGB">
<feFlood flood-opacity="0" result="BackgroundImageFix"/>
<feColorMatrix in="SourceAlpha" type="matrix" values="0 0 0 0 0 0 0 0 0 0 0 0 0 0 0 0 0 0 127 0" result="hardAlpha"/>
<feOffset dx="2"/>
<feGaussianBlur stdDeviation="2"/>
<feComposite in2="hardAlpha" operator="out"/>
<feColorMatrix type="matrix" values="0 0 0 0 0.572314 0 0 0 0 0.572314 0 0 0 0 0.572314 0 0 0 0.25 0"/>
<feBlend mode="normal" in2="BackgroundImageFix" result="effect1_dropShadow_580_826"/>
<feBlend mode="normal" in="SourceGraphic" in2="effect1_dropShadow_580_826" result="shape"/>
</filter>
</defs>
</svg>
