<svg width="73" height="73" viewBox="0 0 73 73" fill="none" xmlns="http://www.w3.org/2000/svg">
<path d="M34.2953 3.2365C34.1918 2.97269 33.9051 2.83839 33.655 2.93654L29.5788 4.53587C29.3287 4.63401 29.2098 4.92743 29.3133 5.19124C29.4168 5.45505 29.7035 5.58935 29.9536 5.49121L33.5769 4.06958L35.0763 7.89095C35.1798 8.15476 35.4664 8.28906 35.7166 8.19092C35.9667 8.09277 36.0856 7.79935 35.9821 7.53554L34.2953 3.2365ZM6.51137 72.2121L34.2952 3.62632L33.3896 3.2021L5.60581 71.7879L6.51137 72.2121Z" fill="#979797"/>
<path d="M67.6466 69.3563C67.8986 69.4485 68.1819 69.3072 68.2794 69.0408L69.8676 64.6992C69.9651 64.4328 69.8398 64.142 69.5877 64.0498C69.3357 63.9576 69.0524 64.0989 68.9549 64.3653L67.5431 68.2245L63.8922 66.8889C63.6401 66.7967 63.3568 66.9379 63.2593 67.2044C63.1619 67.4708 63.2872 67.7615 63.5392 67.8537L67.6466 69.3563ZM38.1189 1.22306L67.3755 69.0969L68.2705 68.6508L39.0139 0.776942L38.1189 1.22306Z" fill="#979797"/>
<path d="M0.872847 30.4249C0.613971 30.4911 0.461328 30.7685 0.531909 31.0444L1.68211 35.5405C1.75269 35.8164 2.01977 35.9864 2.27864 35.9202C2.53752 35.854 2.69016 35.5766 2.61958 35.3007L1.59718 31.3041L5.34709 30.3448C5.60596 30.2786 5.75861 30.0012 5.68803 29.7253C5.61744 29.4494 5.35036 29.2794 5.09149 29.3457L0.872847 30.4249ZM61.1102 68.5892L1.24173 30.4864L0.759568 31.3625L60.6281 69.4653L61.1102 68.5892Z" fill="#979797"/>
<path d="M70.9214 25.2931C71.1167 25.0978 71.1167 24.7812 70.9214 24.586L67.7395 21.404C67.5442 21.2087 67.2276 21.2087 67.0323 21.404C66.8371 21.5992 66.8371 21.9158 67.0323 22.1111L69.8608 24.9395L67.0323 27.7679C66.8371 27.9632 66.8371 28.2798 67.0323 28.475C67.2276 28.6703 67.5442 28.6703 67.7395 28.475L70.9214 25.2931ZM1 25.4395H70.5679V24.4395H1V25.4395Z" fill="#6B8BDE"/>
<path d="M11.6628 70.4036C11.5922 70.6795 11.7448 70.9568 12.0037 71.0231L16.2223 72.1023C16.4812 72.1685 16.7483 71.9985 16.8189 71.7226C16.8895 71.4467 16.7368 71.1693 16.4779 71.1031L12.728 70.1438L13.7504 66.1472C13.821 65.8713 13.6684 65.594 13.4095 65.5278C13.1506 65.4615 12.8835 65.6315 12.813 65.9074L11.6628 70.4036ZM71.7589 31.9826L11.8904 70.0854L12.3726 70.9615L72.2411 32.8587L71.7589 31.9826Z" fill="#979797"/>
</svg>
