<svg width="15" height="18" viewBox="0 0 15 18" fill="none" xmlns="http://www.w3.org/2000/svg">
<path d="M13.0248 3.4574C12.7056 3.07416 12.3266 2.77014 11.9094 2.56272C11.4923 2.3553 11.0451 2.24854 10.5936 2.24854C10.142 2.24854 9.6949 2.3553 9.27773 2.56272C8.86057 2.77014 8.48155 3.07416 8.16233 3.4574L7.49983 4.2524L6.83733 3.4574C6.19252 2.68364 5.31798 2.24894 4.40608 2.24894C3.49418 2.24894 2.61964 2.68364 1.97483 3.4574C1.33002 4.23117 0.967773 5.28063 0.967773 6.3749C0.967773 7.46918 1.33002 8.51864 1.97483 9.2924L7.49983 15.9224L13.0248 9.2924C13.3442 8.90934 13.5976 8.45451 13.7704 7.95392C13.9433 7.45333 14.0322 6.91677 14.0322 6.3749C14.0322 5.83304 13.9433 5.29648 13.7704 4.79589C13.5976 4.29529 13.3442 3.84047 13.0248 3.4574Z" stroke="#B7B7B7" stroke-linecap="round" stroke-linejoin="round"/>
</svg>
