<svg width="41" height="40" viewBox="0 0 41 40" fill="none" xmlns="http://www.w3.org/2000/svg">
<path d="M15.2286 0C19.2674 0 23.1408 1.5653 25.9969 4.35156C28.8527 7.13781 30.4571 10.9168 30.4571 14.8571C30.4571 18.5371 29.0749 21.92 26.8023 24.5257L27.4349 25.1429H29.2857L41 36.5714L37.4857 40L25.7714 28.5714V26.7657L25.1389 26.1486C22.468 28.3657 19.0006 29.7143 15.2286 29.7143C11.1897 29.7143 7.31627 28.149 4.46035 25.3627C1.60443 22.5764 0 18.7975 0 14.8571C0 10.9168 1.60443 7.13781 4.46035 4.35156C7.31627 1.5653 11.1897 0 15.2286 0ZM15.2286 4.57143C9.37143 4.57143 4.68571 9.14286 4.68571 14.8571C4.68571 20.5714 9.37143 25.1429 15.2286 25.1429C21.0857 25.1429 25.7714 20.5714 25.7714 14.8571C25.7714 9.14286 21.0857 4.57143 15.2286 4.57143Z" fill="#35465C"/>
</svg>
